<svg xmlns="http://www.w3.org/2000/svg" width="28" height="26.665" fill="none" overflow="visible">
    <g>
        <path d="M 0 26.665 L 0 0 L 28 0 L 28 26.665 Z" fill="transparent"></path>
        <path d="M 6.875 25.589 L 10.117 25.589 L 10.117 26.662 L 6.875 26.662 Z M 26.216 0.565 C 26.148 0.333 26.28 0.087 26.512 0.018 C 26.745 -0.05 26.991 0.082 27.059 0.315 C 27.148 0.613 27.239 0.889 27.333 1.169 C 27.784 2.518 28.267 3.965 27.822 5.353 C 27.362 6.786 26.348 7.545 25.27 8.349 C 25.125 8.458 24.976 8.568 24.849 8.666 C 24.812 9.34 24.758 10.01 24.685 10.678 C 24.502 12.357 24.208 14.016 23.789 15.652 C 24.325 16.153 24.739 16.737 25.031 17.361 C 25.38 18.104 25.553 18.906 25.551 19.704 C 25.548 20.503 25.366 21.299 25.001 22.021 C 24.145 23.725 22.285 25.029 19.387 25.058 L 19.382 25.058 L 19.382 25.061 L 7.431 25.061 C 7.422 25.061 7.413 25.061 7.403 25.061 C 6.656 25.077 5.957 24.97 5.309 24.737 C 4.649 24.498 4.045 24.131 3.5 23.627 C 2.516 22.716 1.819 21.577 1.474 20.376 C 1.13 19.179 1.133 17.917 1.541 16.746 C 1.987 15.467 2.755 14.549 3.721 13.925 L 3.883 12.519 C 3.894 12.389 3.919 12.266 3.963 12.152 C 4.013 12.02 4.088 11.904 4.188 11.806 C 4.25 11.744 4.537 11.637 4.929 11.519 L 3.669 7.287 L 1.814 7.287 C 1.807 7.287 1.8 7.287 1.793 7.287 C 1.502 7.294 1.24 7.237 1.014 7.132 C 0.688 6.982 0.44 6.736 0.269 6.442 C 0.105 6.159 0.016 5.831 0.002 5.498 C -0.011 5.168 0.05 4.833 0.189 4.532 C 0.57 3.71 1.285 3.459 2.062 3.47 C 2.744 3.48 3.457 3.701 3.997 3.883 C 4.516 4.058 4.81 4.238 5.07 4.398 C 5.396 4.598 5.653 4.756 6.387 4.765 L 8.44 4.788 L 8.449 4.788 C 9.055 4.803 9.452 5.045 9.657 5.373 C 9.766 5.549 9.819 5.745 9.814 5.947 C 9.812 6.139 9.76 6.33 9.664 6.508 C 9.443 6.911 8.98 7.255 8.329 7.317 C 8.315 7.319 8.301 7.319 8.288 7.319 L 8.288 7.321 L 6.592 7.321 L 7.638 10.96 C 7.982 10.933 8.258 10.944 8.404 11.013 C 8.889 11.241 9.067 12.065 9.188 12.635 C 9.213 12.756 9.236 12.863 9.251 12.922 L 9.254 12.931 L 19.369 13.948 C 19.947 13.97 20.487 14.05 20.986 14.173 C 21.082 13.704 21.178 13.269 21.269 12.854 C 21.661 11.07 21.975 9.634 21.932 7.615 L 20.013 9.295 C 19.927 9.37 19.795 9.361 19.717 9.274 L 18.904 8.344 C 18.829 8.258 18.838 8.126 18.924 8.048 L 24.913 2.805 C 24.999 2.73 25.131 2.739 25.207 2.826 L 26.02 3.755 C 26.095 3.842 26.086 3.974 26 4.051 L 24.84 5.065 C 24.867 5.122 24.885 5.184 24.885 5.252 C 24.906 6.018 24.906 6.779 24.885 7.536 C 25.79 6.859 26.624 6.191 26.977 5.088 C 27.333 3.974 26.897 2.668 26.492 1.452 C 26.398 1.137 26.296 0.832 26.216 0.565 Z M 22.73 6.916 C 22.771 6.98 22.796 7.055 22.8 7.135 C 22.91 9.507 22.568 11.065 22.135 13.034 C 22.037 13.476 21.937 13.939 21.834 14.435 C 22.272 14.606 22.673 14.814 23.033 15.055 C 23.39 13.583 23.646 12.095 23.81 10.587 C 23.883 9.912 23.937 9.235 23.974 8.554 C 23.956 8.474 23.96 8.392 23.985 8.315 C 24.026 7.474 24.038 6.629 24.026 5.779 Z M 23.183 16.29 L 23.169 16.288 C 23.03 16.251 22.923 16.151 22.873 16.026 C 22.003 15.34 20.818 14.88 19.328 14.823 C 19.316 14.823 19.305 14.823 19.293 14.82 L 9.069 13.793 C 9.055 13.797 9.044 13.802 9.03 13.804 C 8.91 13.836 8.789 13.813 8.691 13.754 L 8.402 13.724 C 6.982 13.656 5.599 13.87 4.485 14.49 C 3.543 15.014 2.791 15.834 2.372 17.033 C 2.026 18.024 2.026 19.102 2.322 20.132 C 2.625 21.185 3.234 22.183 4.097 22.98 C 4.553 23.402 5.056 23.709 5.608 23.908 C 6.15 24.104 6.743 24.193 7.383 24.181 C 7.399 24.179 7.415 24.179 7.431 24.179 L 19.385 24.179 L 19.385 24.181 C 21.903 24.154 23.498 23.058 24.218 21.624 C 24.521 21.025 24.671 20.364 24.673 19.701 C 24.676 19.034 24.53 18.359 24.238 17.735 C 23.992 17.206 23.639 16.714 23.183 16.29 Z M 4.667 13.428 C 5.774 12.963 7.046 12.795 8.335 12.842 L 8.331 12.815 C 8.247 12.421 8.124 11.847 8.037 11.806 C 7.953 11.767 7.41 11.849 6.788 11.967 C 6.421 12.038 6.045 12.116 5.72 12.189 C 5.685 12.209 5.649 12.227 5.61 12.239 C 5.551 12.257 5.492 12.261 5.435 12.255 C 5.082 12.339 4.835 12.405 4.81 12.43 C 4.801 12.439 4.794 12.451 4.788 12.467 C 4.776 12.496 4.769 12.535 4.765 12.583 C 4.765 12.592 4.763 12.601 4.763 12.61 Z M 6.877 16.194 C 7.595 16.194 8.242 16.486 8.711 16.955 C 9.181 17.425 9.472 18.074 9.472 18.792 C 9.472 19.51 9.181 20.157 8.711 20.626 C 8.702 20.635 8.691 20.645 8.682 20.656 L 9.523 21.973 L 11.323 21.973 C 11.567 21.973 11.763 22.171 11.763 22.413 C 11.763 22.657 11.564 22.853 11.323 22.853 L 9.283 22.853 L 9.283 22.85 C 9.138 22.85 8.996 22.777 8.914 22.647 L 7.959 21.15 C 7.631 21.301 7.264 21.385 6.877 21.385 C 6.159 21.385 5.512 21.093 5.041 20.624 C 4.571 20.155 4.279 19.505 4.279 18.79 C 4.279 18.072 4.571 17.425 5.041 16.953 C 5.512 16.486 6.162 16.194 6.877 16.194 Z M 8.089 17.58 C 7.779 17.27 7.351 17.079 6.877 17.079 C 6.403 17.079 5.975 17.27 5.665 17.58 C 5.355 17.89 5.164 18.318 5.164 18.792 C 5.164 19.266 5.355 19.694 5.665 20.004 C 5.975 20.314 6.403 20.506 6.877 20.506 C 7.089 20.506 7.29 20.467 7.476 20.399 L 6.69 19.166 C 6.56 18.961 6.62 18.69 6.825 18.56 C 7.03 18.43 7.301 18.489 7.431 18.694 L 8.194 19.89 C 8.443 19.594 8.591 19.211 8.591 18.792 C 8.591 18.318 8.399 17.89 8.089 17.58 Z M 5.783 11.288 C 6.061 11.22 6.348 11.156 6.624 11.104 C 6.67 11.095 6.715 11.088 6.759 11.079 L 5.592 7.021 C 5.576 6.975 5.569 6.927 5.569 6.879 C 5.569 6.635 5.767 6.44 6.009 6.44 L 8.278 6.44 C 8.591 6.403 8.8 6.257 8.891 6.089 C 8.921 6.036 8.935 5.984 8.937 5.936 C 8.937 5.899 8.928 5.865 8.91 5.836 C 8.85 5.742 8.695 5.672 8.424 5.665 L 6.38 5.642 C 5.391 5.631 5.047 5.419 4.608 5.148 C 4.384 5.011 4.131 4.854 3.717 4.715 C 3.234 4.553 2.602 4.355 2.051 4.348 C 1.595 4.341 1.185 4.471 0.987 4.899 C 0.907 5.075 0.871 5.271 0.877 5.464 C 0.884 5.656 0.937 5.843 1.028 6 C 1.112 6.143 1.231 6.262 1.381 6.332 C 1.49 6.383 1.618 6.41 1.766 6.408 C 1.782 6.405 1.798 6.405 1.814 6.405 L 3.995 6.405 C 4.184 6.405 4.359 6.528 4.416 6.72 Z M 17.596 25.589 L 20.838 25.589 L 20.838 26.662 L 17.596 26.662 Z" fill="rgb(239,217,21)"></path>
        <path d="M 6.875 25.589 L 10.117 25.589 L 10.117 26.662 L 6.875 26.662 Z M 26.216 0.565 C 26.148 0.333 26.28 0.087 26.512 0.018 C 26.745 -0.05 26.991 0.082 27.059 0.315 C 27.148 0.613 27.239 0.889 27.333 1.169 C 27.784 2.518 28.267 3.965 27.822 5.353 C 27.362 6.786 26.348 7.545 25.27 8.349 C 25.125 8.458 24.976 8.568 24.849 8.666 C 24.812 9.34 24.758 10.01 24.685 10.678 C 24.502 12.357 24.208 14.016 23.789 15.652 C 24.325 16.153 24.739 16.737 25.031 17.361 C 25.38 18.104 25.553 18.906 25.551 19.704 C 25.548 20.503 25.366 21.299 25.001 22.021 C 24.145 23.725 22.285 25.029 19.387 25.058 L 19.382 25.058 L 19.382 25.061 L 7.431 25.061 C 7.422 25.061 7.413 25.061 7.403 25.061 C 6.656 25.077 5.957 24.97 5.309 24.737 C 4.649 24.498 4.045 24.131 3.5 23.627 C 2.516 22.716 1.819 21.577 1.474 20.376 C 1.13 19.179 1.133 17.917 1.541 16.746 C 1.987 15.467 2.755 14.549 3.721 13.925 L 3.883 12.519 C 3.894 12.389 3.919 12.266 3.963 12.152 C 4.013 12.02 4.088 11.904 4.188 11.806 C 4.25 11.744 4.537 11.637 4.929 11.519 L 3.669 7.287 L 1.814 7.287 C 1.807 7.287 1.8 7.287 1.793 7.287 C 1.502 7.294 1.24 7.237 1.014 7.132 C 0.688 6.982 0.44 6.736 0.269 6.442 C 0.105 6.159 0.016 5.831 0.002 5.498 C -0.011 5.168 0.05 4.833 0.189 4.532 C 0.57 3.71 1.285 3.459 2.062 3.47 C 2.744 3.48 3.457 3.701 3.997 3.883 C 4.516 4.058 4.81 4.238 5.07 4.398 C 5.396 4.598 5.653 4.756 6.387 4.765 L 8.44 4.788 L 8.449 4.788 C 9.055 4.803 9.452 5.045 9.657 5.373 C 9.766 5.549 9.819 5.745 9.814 5.947 C 9.812 6.139 9.76 6.33 9.664 6.508 C 9.443 6.911 8.98 7.255 8.329 7.317 C 8.315 7.319 8.301 7.319 8.288 7.319 L 8.288 7.321 L 6.592 7.321 L 7.638 10.96 C 7.982 10.933 8.258 10.944 8.404 11.013 C 8.889 11.241 9.067 12.065 9.188 12.635 C 9.213 12.756 9.236 12.863 9.251 12.922 L 9.254 12.931 L 19.369 13.948 C 19.947 13.97 20.487 14.05 20.986 14.173 C 21.082 13.704 21.178 13.269 21.269 12.854 C 21.661 11.07 21.975 9.634 21.932 7.615 L 20.013 9.295 C 19.927 9.37 19.795 9.361 19.717 9.274 L 18.904 8.344 C 18.829 8.258 18.838 8.126 18.924 8.048 L 24.913 2.805 C 24.999 2.73 25.131 2.739 25.207 2.826 L 26.02 3.755 C 26.095 3.842 26.086 3.974 26 4.051 L 24.84 5.065 C 24.867 5.122 24.885 5.184 24.885 5.252 C 24.906 6.018 24.906 6.779 24.885 7.536 C 25.79 6.859 26.624 6.191 26.977 5.088 C 27.333 3.974 26.897 2.668 26.492 1.452 C 26.398 1.137 26.296 0.832 26.216 0.565 Z M 22.73 6.916 C 22.771 6.98 22.796 7.055 22.8 7.135 C 22.91 9.507 22.568 11.065 22.135 13.034 C 22.037 13.476 21.937 13.939 21.834 14.435 C 22.272 14.606 22.673 14.814 23.033 15.055 C 23.39 13.583 23.646 12.095 23.81 10.587 C 23.883 9.912 23.937 9.235 23.974 8.554 C 23.956 8.474 23.96 8.392 23.985 8.315 C 24.026 7.474 24.038 6.629 24.026 5.779 Z M 23.183 16.29 L 23.169 16.288 C 23.03 16.251 22.923 16.151 22.873 16.026 C 22.003 15.34 20.818 14.88 19.328 14.823 C 19.316 14.823 19.305 14.823 19.293 14.82 L 9.069 13.793 C 9.055 13.797 9.044 13.802 9.03 13.804 C 8.91 13.836 8.789 13.813 8.691 13.754 L 8.402 13.724 C 6.982 13.656 5.599 13.87 4.485 14.49 C 3.543 15.014 2.791 15.834 2.372 17.033 C 2.026 18.024 2.026 19.102 2.322 20.132 C 2.625 21.185 3.234 22.183 4.097 22.98 C 4.553 23.402 5.056 23.709 5.608 23.908 C 6.15 24.104 6.743 24.193 7.383 24.181 C 7.399 24.179 7.415 24.179 7.431 24.179 L 19.385 24.179 L 19.385 24.181 C 21.903 24.154 23.498 23.058 24.218 21.624 C 24.521 21.025 24.671 20.364 24.673 19.701 C 24.676 19.034 24.53 18.359 24.238 17.735 C 23.992 17.206 23.639 16.714 23.183 16.29 Z M 4.667 13.428 C 5.774 12.963 7.046 12.795 8.335 12.842 L 8.331 12.815 C 8.247 12.421 8.124 11.847 8.037 11.806 C 7.953 11.767 7.41 11.849 6.788 11.967 C 6.421 12.038 6.045 12.116 5.72 12.189 C 5.685 12.209 5.649 12.227 5.61 12.239 C 5.551 12.257 5.492 12.261 5.435 12.255 C 5.082 12.339 4.835 12.405 4.81 12.43 C 4.801 12.439 4.794 12.451 4.788 12.467 C 4.776 12.496 4.769 12.535 4.765 12.583 C 4.765 12.592 4.763 12.601 4.763 12.61 Z M 6.877 16.194 C 7.595 16.194 8.242 16.486 8.711 16.955 C 9.181 17.425 9.472 18.074 9.472 18.792 C 9.472 19.51 9.181 20.157 8.711 20.626 C 8.702 20.635 8.691 20.645 8.682 20.656 L 9.523 21.973 L 11.323 21.973 C 11.567 21.973 11.763 22.171 11.763 22.413 C 11.763 22.657 11.564 22.853 11.323 22.853 L 9.283 22.853 L 9.283 22.85 C 9.138 22.85 8.996 22.777 8.914 22.647 L 7.959 21.15 C 7.631 21.301 7.264 21.385 6.877 21.385 C 6.159 21.385 5.512 21.093 5.041 20.624 C 4.571 20.155 4.279 19.505 4.279 18.79 C 4.279 18.072 4.571 17.425 5.041 16.953 C 5.512 16.486 6.162 16.194 6.877 16.194 Z M 8.089 17.58 C 7.779 17.27 7.351 17.079 6.877 17.079 C 6.403 17.079 5.975 17.27 5.665 17.58 C 5.355 17.89 5.164 18.318 5.164 18.792 C 5.164 19.266 5.355 19.694 5.665 20.004 C 5.975 20.314 6.403 20.506 6.877 20.506 C 7.089 20.506 7.29 20.467 7.476 20.399 L 6.69 19.166 C 6.56 18.961 6.62 18.69 6.825 18.56 C 7.03 18.43 7.301 18.489 7.431 18.694 L 8.194 19.89 C 8.443 19.594 8.591 19.211 8.591 18.792 C 8.591 18.318 8.399 17.89 8.089 17.58 Z M 5.783 11.288 C 6.061 11.22 6.348 11.156 6.624 11.104 C 6.67 11.095 6.715 11.088 6.759 11.079 L 5.592 7.021 C 5.576 6.975 5.569 6.927 5.569 6.879 C 5.569 6.635 5.767 6.44 6.009 6.44 L 8.278 6.44 C 8.591 6.403 8.8 6.257 8.891 6.089 C 8.921 6.036 8.935 5.984 8.937 5.936 C 8.937 5.899 8.928 5.865 8.91 5.836 C 8.85 5.742 8.695 5.672 8.424 5.665 L 6.38 5.642 C 5.391 5.631 5.047 5.419 4.608 5.148 C 4.384 5.011 4.131 4.854 3.717 4.715 C 3.234 4.553 2.602 4.355 2.051 4.348 C 1.595 4.341 1.185 4.471 0.987 4.899 C 0.907 5.075 0.871 5.271 0.877 5.464 C 0.884 5.656 0.937 5.843 1.028 6 C 1.112 6.143 1.231 6.262 1.381 6.332 C 1.49 6.383 1.618 6.41 1.766 6.408 C 1.782 6.405 1.798 6.405 1.814 6.405 L 3.995 6.405 C 4.184 6.405 4.359 6.528 4.416 6.72 Z M 17.596 25.589 L 20.838 25.589 L 20.838 26.662 L 17.596 26.662 Z" fill="transparent" stroke-width="0.24" stroke="rgb(239,217,21)" stroke-miterlimit="10"></path>
    </g>
</svg>