<svg xmlns="http://www.w3.org/2000/svg" width="36" height="31.732" fill="none" overflow="visible">
    <g>
        <path d="M 0 31.732 L 0 0 L 36 0 L 36 31.732 Z" fill="transparent"></path>
        <path d="M 8.478 24.452 C 7.686 23.575 7.013 22.588 6.486 21.517 L 4.558 23.55 L 4.286 23.837 C 4.881 24.856 5.587 25.805 6.386 26.664 C 6.458 26.741 6.53 26.817 6.603 26.893 L 6.821 26.664 L 8.693 24.684 C 8.619 24.607 8.549 24.53 8.478 24.452 Z M 5.892 20.105 L 3.599 22.522 C 3.646 22.624 3.695 22.725 3.745 22.826 L 4.034 22.522 L 6.014 20.436 C 5.972 20.326 5.932 20.216 5.892 20.105 Z M 32.255 8.906 L 31.966 9.21 L 29.986 11.296 C 30.028 11.406 30.068 11.516 30.107 11.627 L 32.401 9.21 C 32.354 9.108 32.305 9.007 32.255 8.906 Z M 29.615 5.068 C 29.543 4.991 29.47 4.915 29.396 4.839 L 29.18 5.068 L 27.307 7.047 C 27.38 7.124 27.452 7.201 27.523 7.279 C 28.314 8.156 28.987 9.143 29.514 10.216 L 31.443 8.182 L 31.715 7.896 C 31.119 6.876 30.415 5.929 29.615 5.068 Z" fill="rgb(239, 217, 21)"></path>
        <path d="M 33.866 15.865 C 33.866 24.613 26.748 31.731 18 31.731 C 13.922 31.731 10.199 30.185 7.386 27.647 L 7.588 27.433 L 9.474 25.441 C 11.742 27.463 14.73 28.694 18 28.694 C 24.071 28.694 29.169 24.456 30.493 18.782 C 30.563 18.483 30.622 18.181 30.67 17.876 C 30.775 17.22 30.828 16.549 30.828 15.865 C 30.828 14.38 30.575 12.953 30.107 11.626 L 32.401 9.21 C 33.341 11.235 33.866 13.49 33.866 15.865 Z" fill="rgb(239, 217, 21)"></path>
        <path d="M 28.615 4.083 L 28.413 4.298 L 26.526 6.291 C 24.258 4.267 21.271 3.038 18 3.038 C 11.929 3.038 6.83 7.276 5.506 12.949 C 5.437 13.247 5.377 13.549 5.329 13.856 C 5.225 14.51 5.172 15.182 5.172 15.865 C 5.172 17.351 5.425 18.778 5.892 20.105 L 3.599 22.521 C 2.659 20.497 2.134 18.241 2.134 15.865 C 2.134 7.118 9.252 0 18 0 C 22.078 0 25.802 1.547 28.615 4.083 Z" fill="rgb(239, 217, 21)"></path>
        <path d="M 23.815 8.704 L 8.913 24.452 L 8.693 24.685 L 6.82 26.664 L 6.603 26.893 L 5.22 28.354 L 0 28.354 L 4.286 23.837 L 4.557 23.55 L 6.485 21.517 L 6.775 21.212 L 14.778 12.775 L 7.602 12.77 L 11.375 8.757 Z" fill="rgb(239, 217, 21)"></path>
        <path d="M 36 3.378 L 31.714 7.896 L 31.443 8.182 L 29.513 10.216 L 29.224 10.52 L 21.22 18.956 L 28.397 18.962 L 24.623 22.975 L 12.185 23.028 L 27.087 7.279 L 27.307 7.047 L 29.18 5.068 L 29.396 4.839 L 30.779 3.378 Z" fill="rgb(239, 217, 21)"></path>
    </g>
</svg>