<svg xmlns="http://www.w3.org/2000/svg" width="30" height="27" fill="none">
    <path d="M 7.182 22.92 C 7.182 23.196 7.099 23.465 6.945 23.694 C 6.79 23.923 6.571 24.101 6.314 24.206 C 6.057 24.312 5.774 24.339 5.501 24.286 C 5.229 24.232 4.978 24.099 4.781 23.905 C 4.585 23.71 4.451 23.462 4.396 23.192 C 4.342 22.922 4.37 22.642 4.476 22.387 C 4.583 22.133 4.763 21.916 4.994 21.763 C 5.226 21.61 5.498 21.528 5.776 21.528 C 6.149 21.528 6.506 21.675 6.77 21.936 C 7.034 22.197 7.182 22.551 7.182 22.92 Z M 9.271 18.096 C 8.993 18.096 8.721 18.178 8.49 18.331 C 8.259 18.484 8.078 18.701 7.972 18.955 C 7.866 19.21 7.838 19.49 7.892 19.76 C 7.946 20.03 8.08 20.278 8.277 20.473 C 8.474 20.667 8.724 20.8 8.997 20.854 C 9.27 20.907 9.552 20.88 9.809 20.774 C 10.066 20.669 10.286 20.491 10.44 20.262 C 10.595 20.033 10.677 19.764 10.677 19.488 C 10.677 19.119 10.529 18.765 10.266 18.504 C 10.002 18.243 9.644 18.096 9.271 18.096 Z M 2.28 18.096 C 2.002 18.096 1.73 18.178 1.499 18.331 C 1.268 18.484 1.087 18.701 0.981 18.955 C 0.874 19.21 0.847 19.49 0.901 19.76 C 0.955 20.03 1.089 20.278 1.286 20.473 C 1.482 20.667 1.733 20.8 2.006 20.854 C 2.279 20.907 2.561 20.88 2.818 20.774 C 3.075 20.669 3.295 20.491 3.449 20.262 C 3.604 20.033 3.686 19.764 3.686 19.488 C 3.686 19.119 3.538 18.765 3.274 18.504 C 3.011 18.243 2.653 18.096 2.28 18.096 Z M 5.776 14.664 C 5.498 14.664 5.226 14.746 4.994 14.899 C 4.763 15.052 4.583 15.269 4.476 15.523 C 4.37 15.778 4.342 16.058 4.396 16.328 C 4.451 16.598 4.585 16.846 4.781 17.041 C 4.978 17.235 5.229 17.368 5.501 17.422 C 5.774 17.475 6.057 17.448 6.314 17.342 C 6.571 17.237 6.79 17.059 6.945 16.83 C 7.099 16.601 7.182 16.332 7.182 16.056 C 7.182 15.687 7.034 15.333 6.77 15.072 C 6.506 14.811 6.149 14.664 5.776 14.664 Z M 29.682 1.864 C 29.682 2.11 29.583 2.346 29.407 2.52 C 29.231 2.694 28.993 2.792 28.744 2.792 L 25.382 2.792 L 22.118 6.024 L 19.58 20.734 C 19.523 21.07 19.374 21.384 19.148 21.642 C 18.923 21.899 18.63 22.09 18.302 22.194 C 17.974 22.298 17.624 22.31 17.289 22.23 C 16.955 22.15 16.649 21.98 16.406 21.739 L 4.921 10.369 C 4.677 10.128 4.506 9.825 4.424 9.493 C 4.343 9.162 4.356 8.814 4.461 8.49 C 4.567 8.165 4.76 7.875 5.021 7.652 C 5.282 7.429 5.6 7.281 5.94 7.225 L 20.792 4.711 L 24.057 1.48 C 24.23 1.307 24.437 1.17 24.664 1.076 C 24.892 0.983 25.136 0.935 25.382 0.936 L 28.744 0.936 C 28.993 0.936 29.231 1.034 29.407 1.208 C 29.583 1.382 29.682 1.618 29.682 1.864 Z M 19.97 6.276 L 6.117 8.621 L 17.602 19.99 Z" fill="rgb(239,217,21)"></path>
</svg>